<?xml version="1.0" encoding="UTF-8"?>
<svg version="1.1" xmlns="http://www.w3.org/2000/svg" width="1061" height="938">
<path d="M0 0 C2.22454102 0.00315676 4.4477412 -0.02040235 6.67211914 -0.0456543 C34.70614749 -0.16918623 62.36320219 8.56389006 84.92407227 25.31567383 C85.72329102 25.89317383 86.52250977 26.47067383 87.34594727 27.06567383 C105.50475912 40.83313902 122.457741 60.45827918 129.92407227 82.31567383 C130.04907227 85.12817383 130.04907227 85.12817383 129.92407227 87.31567383 C125.60727006 89.63155207 121.47192311 91.14811012 116.74462891 92.41625977 C116.05273972 92.60362198 115.36085052 92.79098419 114.647995 92.98402405 C112.37854667 93.59634571 110.10663276 94.19879693 107.83422852 94.80004883 C106.24526473 95.22395097 104.65635256 95.64804667 103.06748962 96.07232666 C99.74430436 96.95780178 96.41972877 97.83782407 93.09423828 98.71459961 C88.84274548 99.83645491 84.5963776 100.97653769 80.35102177 102.12136459 C77.07366418 103.00210812 73.79317075 103.87068116 70.51168633 104.73590851 C68.94493146 105.15104985 67.3793082 105.57048752 65.81489754 105.99437714 C63.62404558 106.58656494 61.42934145 107.16157443 59.23291016 107.73266602 C57.9874794 108.06337097 56.74204865 108.39407593 55.45887756 108.73480225 C51.59625804 109.36954326 48.72735007 109.20810563 44.92407227 108.31567383 C42.89481769 106.45650128 41.35274544 104.81639712 39.67407227 102.69067383 C28.02569268 89.05821851 11.14131259 82.6541511 -6.47827148 80.99536133 C-30.70172073 80.16294039 -51.3957394 91.92865219 -68.73217773 107.97583008 C-85.75183522 124.96712146 -94.02244737 147.42756862 -94.38842773 171.25317383 C-94.31180295 187.6901735 -89.18657508 202.42031429 -79.07592773 215.31567383 C-78.3037793 216.30696289 -77.53163086 217.29825195 -76.73608398 218.31958008 C-65.31076354 231.88687874 -47.12155782 236.93568595 -30.17358398 238.60083008 C-8.28499304 239.35787909 11.60589999 229.51992693 27.34448242 214.90112305 C32.57592709 209.65027271 36.82540578 203.46367356 40.92407227 197.31567383 C39.89312439 197.30980759 38.86217651 197.30394135 37.79998779 197.29789734 C28.0884248 197.24070612 18.37708651 197.16796342 8.66575241 197.07995892 C3.67293661 197.03521462 -1.31979682 196.99596745 -6.31274414 196.96923828 C-11.13043742 196.9432458 -15.94781442 196.90287221 -20.76531219 196.85248756 C-22.60408344 196.83579137 -24.44290943 196.82429426 -26.28174591 196.81805992 C-28.85573045 196.80844868 -31.4289008 196.78042575 -34.00268555 196.74804688 C-34.76441574 196.74948196 -35.52614594 196.75091705 -36.31095886 196.75239563 C-39.47402445 196.69605172 -41.730674 196.50610563 -44.52568054 194.96446228 C-46.82934342 192.51436737 -46.94794706 190.63706485 -47.07592773 187.31567383 C-46.30615234 184.38256836 -46.30615234 184.38256836 -45.04077148 181.32348633 C-44.34056885 179.62047363 -44.34056885 179.62047363 -43.6262207 177.88305664 C-41.04585598 171.94537327 -38.38379344 166.05387591 -35.63842773 160.19067383 C-35.0912207 159.00602539 -34.54401367 157.82137695 -33.98022461 156.60083008 C-24.24258094 135.69658675 -24.24258094 135.69658675 -19.07592773 131.31567383 C-15.86195161 130.22760702 -12.84500968 130.19228249 -9.4697876 130.19541931 C-8.32837814 130.19404465 -7.18696869 130.19266998 -6.01097107 130.19125366 C-4.76300247 130.19484894 -3.51503387 130.19844421 -2.22924805 130.20214844 C-0.91193192 130.20200241 0.40538422 130.20185638 1.76261902 130.20170593 C5.37178483 130.20141903 8.9809174 130.20729849 12.59007549 130.21427989 C16.36304748 130.22053122 20.13602022 130.22111864 23.90899658 130.2223053 C31.05227132 130.22541336 38.19553076 130.23361969 45.33879876 130.24365479 C53.47174555 130.25483221 61.60469307 130.26033048 69.73764563 130.26535022 C86.46646347 130.27580272 103.19526591 130.29339202 119.92407227 130.31567383 C120.12314178 129.63961594 120.3222113 128.96355804 120.52731323 128.26701355 C120.79214508 127.37452408 121.05697693 126.48203461 121.32983398 125.5625 C121.5907785 124.68019211 121.85172302 123.79788422 122.12057495 122.88883972 C134.66109715 82.72835201 169.6635402 44.87198792 206.29516602 25.62817383 C226.45560809 15.39228194 247.67225651 9.06492669 269.92407227 5.31567383 C270.94404297 5.1377832 270.94404297 5.1377832 271.98461914 4.95629883 C312.11290199 -1.77851787 354.14088375 5.66494705 387.58105469 29.26831055 C392.25283779 32.6826089 396.62281008 36.36691857 400.83032227 40.34301758 C402.65678901 42.06384912 404.52687972 43.62737364 406.48657227 45.19067383 C411.30118833 49.29159387 415.07653586 54.3276177 418.92407227 59.31567383 C419.82125977 60.47196289 419.82125977 60.47196289 420.73657227 61.65161133 C443.94139387 93.12852212 449.47438338 135.01458376 443.79907227 173.06567383 C436.05305971 219.16786985 407.51396083 258.1621052 370.23657227 285.31567383 C352.26442641 298.10848424 332.03624669 307.10593043 310.92407227 313.31567383 C310.26181641 313.5114502 309.59956055 313.70722656 308.91723633 313.90893555 C266.21354454 326.12675841 220.46677298 321.33238006 181.61157227 300.00317383 C173.77305768 295.53803733 166.78136867 290.15233963 159.92407227 284.31567383 C158.93407227 283.47907227 157.94407227 282.6424707 156.92407227 281.78051758 C139.20526077 266.25194806 126.13400054 245.70439847 118.92407227 223.31567383 C115.77070336 227.99374858 112.68951952 232.69571864 109.73657227 237.50317383 C92.52578741 264.56486844 68.34361387 286.61982597 39.92407227 301.31567383 C39.00440674 301.79496338 39.00440674 301.79496338 38.06616211 302.28393555 C5.22093998 319.16089228 -39.02991402 325.68275607 -75.07592773 316.31567383 C-76.26001221 316.01765869 -76.26001221 316.01765869 -77.46801758 315.71362305 C-112.9264434 306.56284043 -144.57148047 284.59142212 -164.07592773 253.31567383 C-177.60366001 229.79296613 -183.54006292 204.53032039 -183.38842773 177.50317383 C-183.38627258 176.80501556 -183.38411743 176.1068573 -183.38189697 175.38754272 C-183.32789624 164.44584029 -182.73560383 153.96160561 -180.07592773 143.31567383 C-179.88256836 142.50694824 -179.68920898 141.69822266 -179.48999023 140.86499023 C-171.57316542 108.43410832 -154.14366399 80.20025627 -131.07592773 56.31567383 C-130.1563258 55.33291063 -129.23705837 54.34983432 -128.31811523 53.36645508 C-102.24473898 25.91866829 -66.10572808 8.78967459 -29.07592773 2.31567383 C-27.57098755 2.04968384 -27.57098755 2.04968384 -26.03564453 1.77832031 C-17.31670251 0.37682788 -8.80696989 -0.02598494 0 0 Z M223.67407227 110.69067383 C207.14708022 130.21339355 199.04560589 154.88727883 200.92407227 180.31567383 C202.81376118 193.85998072 208.96648421 206.11397632 217.92407227 216.31567383 C218.79805664 217.33081055 218.79805664 217.33081055 219.68969727 218.36645508 C228.70826136 228.12393514 240.3489229 233.59137899 252.92407227 237.31567383 C253.75165039 237.56188477 254.57922852 237.8080957 255.43188477 238.06176758 C276.38119475 243.21032681 297.66178058 236.88997214 315.73706055 226.24829102 C336.90007615 213.15566271 352.58819966 193.93088161 358.36157227 169.50317383 C362.94227988 148.20035598 360.36658446 128.80000003 348.79516602 110.06176758 C338.02003733 94.24774782 321.49696355 84.49318306 302.84594727 80.91723633 C300.86858579 80.6198283 298.9193097 80.4451358 296.92407227 80.31567383 C296.18672852 80.2512207 295.44938477 80.18676758 294.68969727 80.12036133 C268.46662967 78.89878986 241.24034474 91.77314962 223.67407227 110.69067383 Z " fill="#000000" transform="translate(514.075927734375,324.684326171875)"/>
<path d="M0 0 C2.07617188 3.65917969 2.07617188 3.65917969 1.390625 6.7265625 C0.82601562 8.16128906 0.82601562 8.16128906 0.25 9.625 C-0.11609375 10.58664062 -0.4821875 11.54828125 -0.859375 12.5390625 C-2 15 -2 15 -4 17 C-6.65833646 17.19325521 -9.21207517 17.26046573 -11.87124634 17.24050903 C-12.69374921 17.24221788 -13.51625209 17.24392673 -14.36367929 17.24568737 C-17.13528081 17.2489964 -19.90664323 17.23795544 -22.67822266 17.22705078 C-24.65878799 17.22648697 -26.63935374 17.22680263 -28.61991882 17.22793579 C-34.01016068 17.22851149 -39.40031419 17.21672216 -44.79053545 17.20278788 C-50.4186512 17.19031657 -56.0467688 17.18911287 -61.67489624 17.18673706 C-72.338597 17.18051168 -83.00225694 17.16408658 -93.66593969 17.14403808 C-105.80359708 17.12171195 -117.94125638 17.11069393 -130.07892919 17.10064721 C-155.05264212 17.07972125 -180.02631878 17.04452477 -205 17 C-204.25960633 12.55484928 -202.95530484 10.2443827 -200.0625 6.75 C-199.35222656 5.87859375 -198.64195312 5.0071875 -197.91015625 4.109375 C-196 2 -196 2 -194 1 C-191.74979708 0.89336358 -189.49636649 0.85328144 -187.2436676 0.84178162 C-186.18928046 0.83437465 -186.18928046 0.83437465 -185.11359257 0.82681805 C-182.74573409 0.81139722 -180.37790284 0.80306934 -178.01000977 0.79467773 C-176.31642415 0.78510118 -174.62284094 0.77509123 -172.92926025 0.76467896 C-168.31462917 0.73755947 -163.69998783 0.71657776 -159.08532071 0.69667697 C-154.24549594 0.6747964 -149.40570239 0.64740342 -144.56590271 0.62062073 C-136.41886777 0.57629789 -128.27182161 0.53553898 -120.12475586 0.49731445 C-108.69516746 0.44368736 -97.26561701 0.38400604 -85.83606637 0.32291877 C-70.46830056 0.24108115 -55.10052162 0.16125348 -39.73271179 0.08810806 C-38.08136865 0.08019859 -36.43002621 0.0721434 -34.77868462 0.06391716 C-23.18570926 0.00640829 -11.59311287 -0.00879953 0 0 Z " fill="#000000" transform="translate(308,443)"/>
<path d="M0 0 C1.28445007 -0.00412399 2.56890015 -0.00824799 3.89227295 -0.01249695 C5.31341763 -0.00188015 6.73456019 0.00902427 8.15570068 0.02018738 C9.65380842 0.0210337 11.1519174 0.02055842 12.65002441 0.01885986 C16.71588253 0.01799866 20.78147546 0.03564457 24.84727192 0.05658174 C29.09669465 0.07532772 33.34612336 0.07709734 37.59558105 0.08065796 C45.64201428 0.08998454 53.68832532 0.11460661 61.73470473 0.14470643 C70.89542821 0.17823136 80.05615751 0.19473165 89.21692705 0.20979273 C108.06084537 0.24115564 126.90464992 0.29392805 145.74847412 0.36076355 C146.74847412 3.36076355 146.74847412 3.36076355 145.45550537 5.95451355 C144.83031006 6.91357605 144.20511475 7.87263855 143.56097412 8.86076355 C142.64251709 10.2993573 142.64251709 10.2993573 141.70550537 11.76701355 C139.78192648 14.31642749 138.46850561 15.73287588 135.74847412 17.36076355 C132.85120773 17.72990704 132.85120773 17.72990704 129.42102051 17.7215271 C128.11974213 17.72565109 126.81846375 17.72977509 125.47775269 17.73402405 C124.03771765 17.72340721 122.59768471 17.71250279 121.15765381 17.70133972 C119.63984189 17.70049342 118.12202874 17.70096866 116.60421753 17.70266724 C112.48464355 17.70352849 108.36533126 17.68588178 104.24581814 17.66494536 C99.9403408 17.6462002 95.63485755 17.64442983 91.3293457 17.64086914 C83.17666534 17.63154232 75.02410557 17.60691992 66.87147832 17.57682067 C57.58983793 17.54329648 48.3081918 17.52679564 39.02650595 17.51173437 C19.93376029 17.48037092 0.8411269 17.42759804 -18.25152588 17.36076355 C-18.25152588 12.652934 -17.41701479 11.82557951 -14.50152588 8.29826355 C-13.80543213 7.44103699 -13.10933838 6.58381042 -12.39215088 5.7006073 C-8.35936589 1.29250838 -6.07124289 -0.01502783 0 0 Z " fill="#000000" transform="translate(184.25152587890625,404.6392364501953)"/>
<path d="M0 0 C1.28549995 -0.00262848 1.28549995 -0.00262848 2.5969696 -0.00531006 C5.43828335 -0.00972228 8.27953519 -0.00679304 11.12084961 -0.00341797 C13.08857739 -0.00409113 15.0563051 -0.00506125 17.02403259 -0.00631714 C21.1507954 -0.00779321 25.27753658 -0.00564223 29.40429688 -0.00097656 C34.70650227 0.00472441 40.00865709 0.00143881 45.31086063 -0.00454903 C49.37446985 -0.0081539 53.43806698 -0.00701646 57.50167656 -0.00442123 C59.45740197 -0.00375195 61.41312847 -0.00458042 63.36885262 -0.00690079 C66.09619197 -0.00942651 68.82344813 -0.00558804 71.55078125 0 C72.77497269 -0.00303635 72.77497269 -0.00303635 74.02389526 -0.00613403 C79.5964301 0.01513127 79.5964301 0.01513127 80.71069336 1.12939453 C80.64645897 3.46519062 80.50951911 5.79918981 80.33569336 8.12939453 C80.24545898 9.40814453 80.15522461 10.68689453 80.06225586 12.00439453 C79.71069336 15.12939453 79.71069336 15.12939453 78.71069336 16.12939453 C75.75822982 16.22466259 72.82920915 16.25491905 69.87646484 16.24291992 C68.94972961 16.24306595 68.02299438 16.24321198 67.06817627 16.24336243 C63.98935649 16.24266292 60.91059639 16.23486874 57.83178711 16.22705078 C55.70329318 16.22518674 53.57479883 16.22376277 51.44630432 16.22276306 C45.83207016 16.21893681 40.21786168 16.20910561 34.6036377 16.19805908 C28.87956083 16.18784727 23.15547983 16.18326594 17.43139648 16.17822266 C6.19115079 16.16748344 -5.04907579 16.15040573 -16.28930664 16.12939453 C-16.61930664 15.46939453 -16.94930664 14.80939453 -17.28930664 14.12939453 C-16.25949145 11.86026019 -15.18485554 9.73764391 -13.97680664 7.56689453 C-13.65518555 6.96425781 -13.33356445 6.36162109 -13.00219727 5.74072266 C-9.57741499 -0.5251521 -6.69345318 -0.01664297 0 0 Z " fill="#000000" transform="translate(220.289306640625,481.87060546875)"/>
</svg>
